<svg xmlns="http://www.w3.org/2000/svg" width="48" height="48" viewBox="0 0 256 256" fill="none" id="my-svg">
  <defs><pattern id="a" patternUnits="userSpaceOnUse" width="80" height="80" patternTransform="scale(3.19) rotate(0)"><rect x="0" y="0" width="100%" height="100%" fill="none"/><path d="M-20.133 4.568C-13.178 4.932-6.452 7.376 0 10c6.452 2.624 13.036 5.072 20 5 6.967-.072 13.56-2.341 20-5 6.44-2.659 13.033-4.928 20-5 6.964-.072 13.548 2.376 20 5s13.178 5.068 20.133 5.432" stroke-width="30" stroke="url(#gradient1)" fill="none"/><path d="M-20.133 24.568C-13.178 24.932-6.452 27.376 0 30c6.452 2.624 13.036 5.072 20 5 6.967-.072 13.56-2.341 20-5 6.44-2.659 13.033-4.928 20-5 6.964-.072 13.548 2.376 20 5s13.178 5.068 20.133 5.432" stroke-width="30" stroke="url(#gradient1)" fill="none"/><path d="M-20.133 44.568C-13.178 44.932-6.452 47.376 0 50c6.452 2.624 13.036 5.072 20 5 6.967-.072 13.56-2.341 20-5 6.44-2.659 13.033-4.928 20-5 6.964-.072 13.548 2.376 20 5s13.178 5.068 20.133 5.432" stroke-width="30" stroke="url(#gradient1)" fill="none"/><path d="M-20.133 64.568C-13.178 64.932-6.452 67.376 0 70c6.452 2.624 13.036 5.072 20 5 6.967-.072 13.56-2.341 20-5 6.44-2.659 13.033-4.928 20-5 6.964-.072 13.548 2.376 20 5s13.178 5.068 20.133 5.432" stroke-width="30" stroke="url(#gradient1)" fill="none"/></pattern>
    <linearGradient id="gradient1">
      <stop class="stop1" offset="0%" stop-color="#8f66ff"/>
      <stop class="stop2" offset="100%" stop-color="#e6e600"/>
    </linearGradient>
  </defs>
  
  <g id="group" transform="translate(0,0) scale(1)">
    <path x="5" y="4" width="12" height="16" rx="2" fill="#3c77b1" d="M74.667 42.667H160A21.333 21.333 0 0 1 181.333 64V192A21.333 21.333 0 0 1 160 213.333H74.667A21.333 21.333 0 0 1 53.333 192V64A21.333 21.333 0 0 1 74.667 42.667z" id="filltone" stroke="url(#gradient1)" stroke-linecap="round" stroke-linejoin="round"/>
    <path d="M117.333 138.667a21.333 21.333 0 1 0 0 -42.667 21.333 21.333 0 0 0 0 42.667Zm0 0s-32 0 -32 26.667m32 -26.667s32 0 32 26.667m64 26.667v-21.333m0 -32v-21.333m0 -53.333v21.333M53.333 64c0 -10.667 10.667 -21.333 21.333 -21.333h85.333c10.667 0 21.333 10.667 21.333 21.333v128c0 10.667 -10.667 21.333 -21.333 21.333H74.667c-10.667 0 -21.333 -10.667 -21.333 -21.333V64Z" stroke="url(#gradient1)" stroke-width="14" stroke-linecap="round" id="stroketone" stroke-linejoin="round"/>
  </g>
</svg>