<svg xmlns="http://www.w3.org/2000/svg" width="48" height="48" viewBox="0 0 256 256" fill="none" id="my-svg">
  <defs><pattern id="a" patternUnits="userSpaceOnUse" width="80" height="80" patternTransform="scale(3.19) rotate(0)"><rect x="0" y="0" width="100%" height="100%" fill="none"/><path d="M-20.133 4.568C-13.178 4.932-6.452 7.376 0 10c6.452 2.624 13.036 5.072 20 5 6.967-.072 13.56-2.341 20-5 6.44-2.659 13.033-4.928 20-5 6.964-.072 13.548 2.376 20 5s13.178 5.068 20.133 5.432" stroke-width="30" stroke="url(#gradient1)" fill="none"/><path d="M-20.133 24.568C-13.178 24.932-6.452 27.376 0 30c6.452 2.624 13.036 5.072 20 5 6.967-.072 13.56-2.341 20-5 6.44-2.659 13.033-4.928 20-5 6.964-.072 13.548 2.376 20 5s13.178 5.068 20.133 5.432" stroke-width="30" stroke="url(#gradient1)" fill="none"/><path d="M-20.133 44.568C-13.178 44.932-6.452 47.376 0 50c6.452 2.624 13.036 5.072 20 5 6.967-.072 13.56-2.341 20-5 6.44-2.659 13.033-4.928 20-5 6.964-.072 13.548 2.376 20 5s13.178 5.068 20.133 5.432" stroke-width="30" stroke="url(#gradient1)" fill="none"/><path d="M-20.133 64.568C-13.178 64.932-6.452 67.376 0 70c6.452 2.624 13.036 5.072 20 5 6.967-.072 13.56-2.341 20-5 6.44-2.659 13.033-4.928 20-5 6.964-.072 13.548 2.376 20 5s13.178 5.068 20.133 5.432" stroke-width="30" stroke="url(#gradient1)" fill="none"/></pattern>
    <linearGradient id="gradient1">
      <stop class="stop1" offset="0%" stop-color="#8f66ff"/>
      <stop class="stop2" offset="100%" stop-color="#e6e600"/>
    </linearGradient>
  </defs>
  
  <g id="group" transform="translate(0,0) scale(1)">
    <path d="M53.333 32.000H202.667C214.449 32.000 224.000 41.551 224.000 53.333V74.667V202.667C224.000 214.449 214.449 224.000 202.667 224.000H96.000H53.333C41.551 224.000 32.000 214.449 32.000 202.667V74.667V53.333C32.000 41.551 41.551 32.000 53.333 32.000Z" fill="#3c77b1" stroke-width="14" id="filltone" stroke="url(#gradient1)" stroke-linecap="round" stroke-linejoin="round"/>
    <path d="M32.000 74.667V202.667C32.000 214.449 41.551 224.000 53.333 224.000L96.000 224.000M32.000 74.667L32.000 53.333C32.000 41.551 41.551 32.000 53.333 32.000H202.667C214.449 32.000 224.000 41.551 224.000 53.333V74.667M32.000 74.667H96.000M224.000 74.667V202.667C224.000 214.449 214.449 224.000 202.667 224.000H96.000M224.000 74.667H96.000M96.000 74.667V224.000" stroke="url(#gradient1)" stroke-width="14" stroke-linecap="round" stroke-linejoin="round" id="stroketone"/>
  </g>
</svg>