<svg xmlns="http://www.w3.org/2000/svg" width="48" height="48" viewBox="0 0 256 256" fill="none" id="my-svg">
  <defs><pattern id="a" patternUnits="userSpaceOnUse" width="80" height="80" patternTransform="scale(3.19) rotate(0)"><rect x="0" y="0" width="100%" height="100%" fill="none"/><path d="M-20.133 4.568C-13.178 4.932-6.452 7.376 0 10c6.452 2.624 13.036 5.072 20 5 6.967-.072 13.56-2.341 20-5 6.44-2.659 13.033-4.928 20-5 6.964-.072 13.548 2.376 20 5s13.178 5.068 20.133 5.432" stroke-width="30" stroke="url(#gradient1)" fill="none"/><path d="M-20.133 24.568C-13.178 24.932-6.452 27.376 0 30c6.452 2.624 13.036 5.072 20 5 6.967-.072 13.56-2.341 20-5 6.44-2.659 13.033-4.928 20-5 6.964-.072 13.548 2.376 20 5s13.178 5.068 20.133 5.432" stroke-width="30" stroke="url(#gradient1)" fill="none"/><path d="M-20.133 44.568C-13.178 44.932-6.452 47.376 0 50c6.452 2.624 13.036 5.072 20 5 6.967-.072 13.56-2.341 20-5 6.44-2.659 13.033-4.928 20-5 6.964-.072 13.548 2.376 20 5s13.178 5.068 20.133 5.432" stroke-width="30" stroke="url(#gradient1)" fill="none"/><path d="M-20.133 64.568C-13.178 64.932-6.452 67.376 0 70c6.452 2.624 13.036 5.072 20 5 6.967-.072 13.56-2.341 20-5 6.44-2.659 13.033-4.928 20-5 6.964-.072 13.548 2.376 20 5s13.178 5.068 20.133 5.432" stroke-width="30" stroke="url(#gradient1)" fill="none"/></pattern>
    <linearGradient id="gradient1">
      <stop class="stop1" offset="0%" stop-color="#8f66ff"/>
      <stop class="stop2" offset="100%" stop-color="#e6e600"/>
    </linearGradient>
  </defs>
  
  <g id="group" transform="translate(0,0) scale(1)">
    <path d="M85.333 32.000H170.667C182.449 32.000 192.000 41.551 192.000 53.333V64.000V128.000V192.000V208.000C192.000 216.836 184.836 224.000 176.000 224.000C167.164 224.000 160.000 216.836 160.000 208.000V192.000H96.000V208.000C96.000 216.836 88.837 224.000 80.000 224.000C71.163 224.000 64.000 216.836 64.000 208.000V192.000V128.000V64.000V53.333C64.000 41.551 73.551 32.000 85.333 32.000Z" fill="#3c77b1" stroke-width="14" id="filltone" stroke="url(#gradient1)" stroke-linecap="round" stroke-linejoin="round"/>
    <path d="M96.000 192.000V208.000C96.000 216.836 88.837 224.000 80.000 224.000C71.163 224.000 64.000 216.836 64.000 208.000V192.000M96.000 192.000H64.000M96.000 192.000H160.000M160.000 192.000V208.000C160.000 216.836 167.164 224.000 176.000 224.000C184.836 224.000 192.000 216.836 192.000 208.000V192.000M160.000 192.000H192.000M53.333 192.000H64.000M64.000 192.000V128.000M192.000 192.000H202.667M192.000 192.000V128.000M96.000 160.000H106.667M149.333 160.000H160.000M128.000 128.000L128.000 64.000M128.000 128.000H64.000M128.000 128.000H192.000M128.000 64.000H64.000M128.000 64.000H192.000M64.000 128.000V64.000M192.000 128.000V64.000M64.000 64.000H53.333C41.551 64.000 32.000 73.551 32.000 85.333V96.000M64.000 64.000V53.333C64.000 41.551 73.551 32.000 85.333 32.000H170.667C182.449 32.000 192.000 41.551 192.000 53.333V64.000M192.000 64.000H202.667C214.449 64.000 224.000 73.551 224.000 85.333V96.000" stroke="url(#gradient1)" stroke-width="14" stroke-linecap="round" stroke-linejoin="round" id="stroketone"/>
  </g>
</svg>